<svg width="366" height="110" viewBox="0 0 366 110" fill="none" xmlns="http://www.w3.org/2000/svg">
<path d="M110 55C110 85.3757 85.3757 110 55 110C24.6243 110 0 85.3757 0 55C0 24.6243 24.6243 0 55 0C85.3757 0 110 24.6243 110 55Z" fill="#D9D9D9"/>
<path d="M75.096 72.352H77.592V88H31.608V85.504L36.888 84.928C37.912 84.8 38.52 84.544 38.712 84.16C38.904 83.776 39 82.464 39 80.224V30.496C39 28.256 38.904 26.944 38.712 26.56C38.52 26.176 37.912 25.92 36.888 25.792L31.608 25.312V22.72H76.344V38.368H73.944L71.16 28.288C70.968 27.52 70.744 26.976 70.488 26.656C70.296 26.272 69.88 26.048 69.24 25.984C68.6 25.856 67.512 25.792 65.976 25.792H47.352V53.536H60.216C61.752 53.536 62.84 53.504 63.48 53.44C64.12 53.312 64.536 53.088 64.728 52.768C64.984 52.384 65.208 51.808 65.4 51.04L67.224 43.84H69.72V66.304H67.224L65.4 59.104C65.208 58.336 64.984 57.792 64.728 57.472C64.536 57.088 64.12 56.864 63.48 56.8C62.84 56.672 61.752 56.608 60.216 56.608H47.352V84.928H67.128C68.664 84.928 69.752 84.896 70.392 84.832C71.032 84.704 71.448 84.48 71.64 84.16C71.896 83.776 72.12 83.2 72.312 82.432L75.096 72.352Z" fill="black"/>
<path d="M111.512 86.752V88H100.184V86.752L102.824 86.464C103.336 86.4 103.64 86.272 103.736 86.08C103.832 85.888 103.88 85.232 103.88 84.112V72.16C103.88 69.792 103.496 68.128 102.728 67.168C101.96 66.176 100.856 65.68 99.416 65.68C98.36 65.68 97.192 66 95.912 66.64C94.632 67.28 93.432 68.528 92.312 70.384V84.112C92.312 85.232 92.36 85.888 92.456 86.08C92.552 86.272 92.856 86.4 93.368 86.464L96.008 86.752V88H84.68V86.752L87.32 86.464C87.832 86.4 88.136 86.272 88.232 86.08C88.328 85.888 88.376 85.232 88.376 84.112V68.128C88.376 67.008 88.328 66.352 88.232 66.16C88.136 65.968 87.832 65.84 87.32 65.776L84.68 65.536V64.24H92.072V68.128C93.224 66.592 94.52 65.488 95.96 64.816C97.432 64.112 98.904 63.76 100.376 63.76C102.744 63.76 104.568 64.496 105.848 65.968C107.16 67.408 107.816 69.456 107.816 72.112V84.112C107.816 85.232 107.864 85.888 107.96 86.08C108.056 86.272 108.36 86.4 108.872 86.464L111.512 86.752Z" fill="black"/>
<path d="M139.121 86.8V88H131.729V84.208C130.737 85.68 129.633 86.768 128.417 87.472C127.233 88.144 125.905 88.48 124.433 88.48C121.681 88.48 119.537 87.456 118.001 85.408C116.497 83.328 115.745 80.4 115.745 76.624V75.664C115.745 72.048 116.625 69.168 118.385 67.024C120.177 64.848 122.625 63.76 125.729 63.76C128.001 63.76 129.921 64.464 131.489 65.872V56.368C131.489 55.248 131.441 54.592 131.345 54.4C131.249 54.208 130.945 54.08 130.433 54.016L127.793 53.776V52.48H135.425V84.112C135.425 85.232 135.473 85.888 135.569 86.08C135.665 86.272 135.969 86.4 136.481 86.464L139.121 86.8ZM120.065 78.064C120.065 81.072 120.497 83.28 121.361 84.688C122.257 86.096 123.489 86.8 125.057 86.8C126.081 86.8 127.137 86.48 128.225 85.84C129.313 85.2 130.401 83.904 131.489 81.952V68.224C130.081 66.336 128.241 65.392 125.969 65.392C123.921 65.392 122.417 66.176 121.457 67.744C120.529 69.312 120.065 71.472 120.065 74.224V78.064Z" fill="black"/>
<path d="M141.813 53.776V52.48H149.445V84.112C149.445 85.232 149.493 85.888 149.589 86.08C149.685 86.272 149.989 86.4 150.501 86.464L153.141 86.752V88H141.813V86.752L144.453 86.464C144.965 86.4 145.269 86.272 145.365 86.08C145.461 85.888 145.509 85.232 145.509 84.112V56.368C145.509 55.248 145.461 54.592 145.365 54.4C145.269 54.208 144.965 54.08 144.453 54.016L141.813 53.776Z" fill="black"/>
<path d="M176.659 82.528C176.083 84.704 174.995 86.24 173.395 87.136C171.827 88.032 170.083 88.48 168.163 88.48C164.611 88.48 161.955 87.408 160.195 85.264C158.435 83.088 157.555 80.192 157.555 76.576V75.616C157.555 72.032 158.403 69.168 160.099 67.024C161.795 64.848 164.259 63.76 167.491 63.76C169.219 63.76 170.787 64.112 172.195 64.816C173.635 65.52 174.771 66.56 175.603 67.936C176.467 69.312 176.899 71.024 176.899 73.072C176.899 74.032 176.803 75.04 176.611 76.096H161.875V77.536C161.875 80.896 162.387 83.312 163.411 84.784C164.467 86.224 166.163 86.944 168.499 86.944C169.971 86.944 171.187 86.56 172.147 85.792C173.139 85.024 173.795 83.696 174.115 81.808L176.659 82.528ZM167.491 65.296C165.603 65.296 164.195 66.016 163.267 67.456C162.339 68.896 161.875 71.264 161.875 74.56H172.675V74.416C172.739 74 172.787 73.6 172.819 73.216C172.851 72.8 172.867 72.432 172.867 72.112C172.867 69.712 172.371 67.984 171.379 66.928C170.387 65.84 169.091 65.296 167.491 65.296Z" fill="black"/>
<path d="M191.558 78.304L188.63 77.584C184.63 76.56 182.63 74.256 182.63 70.672C182.63 69.488 182.902 68.368 183.446 67.312C183.99 66.256 184.854 65.408 186.038 64.768C187.254 64.096 188.806 63.76 190.694 63.76C192.806 63.76 194.502 64.112 195.782 64.816C197.062 65.52 197.958 66.432 198.47 67.552C198.982 68.672 199.142 69.888 198.95 71.2L195.206 71.872C195.59 69.792 195.366 68.176 194.534 67.024C193.734 65.872 192.406 65.296 190.55 65.296C189.11 65.296 187.958 65.664 187.094 66.4C186.23 67.104 185.798 68.144 185.798 69.52C185.798 70.544 186.118 71.456 186.758 72.256C187.398 73.024 188.47 73.6 189.974 73.984L192.998 74.704C195.11 75.216 196.742 76.032 197.894 77.152C199.078 78.272 199.67 79.744 199.67 81.568C199.67 83.616 198.918 85.28 197.414 86.56C195.942 87.84 193.83 88.48 191.078 88.48C189.766 88.48 188.486 88.288 187.238 87.904C186.022 87.488 184.95 86.848 184.022 85.984C183.126 85.088 182.47 83.936 182.054 82.528L184.742 81.568C185.094 83.584 185.862 84.992 187.046 85.792C188.23 86.592 189.59 86.992 191.126 86.992C192.022 86.992 192.87 86.848 193.67 86.56C194.502 86.272 195.174 85.824 195.686 85.216C196.198 84.576 196.454 83.76 196.454 82.768C196.454 81.744 196.102 80.864 195.398 80.128C194.694 79.392 193.414 78.784 191.558 78.304Z" fill="black"/>
<path d="M214.292 78.304L211.364 77.584C207.364 76.56 205.364 74.256 205.364 70.672C205.364 69.488 205.636 68.368 206.18 67.312C206.724 66.256 207.588 65.408 208.772 64.768C209.988 64.096 211.54 63.76 213.428 63.76C215.54 63.76 217.236 64.112 218.516 64.816C219.796 65.52 220.692 66.432 221.204 67.552C221.716 68.672 221.876 69.888 221.684 71.2L217.94 71.872C218.324 69.792 218.1 68.176 217.268 67.024C216.468 65.872 215.14 65.296 213.284 65.296C211.844 65.296 210.692 65.664 209.828 66.4C208.964 67.104 208.532 68.144 208.532 69.52C208.532 70.544 208.852 71.456 209.492 72.256C210.132 73.024 211.204 73.6 212.708 73.984L215.732 74.704C217.844 75.216 219.476 76.032 220.628 77.152C221.812 78.272 222.404 79.744 222.404 81.568C222.404 83.616 221.652 85.28 220.148 86.56C218.676 87.84 216.564 88.48 213.812 88.48C212.5 88.48 211.22 88.288 209.972 87.904C208.756 87.488 207.684 86.848 206.756 85.984C205.86 85.088 205.204 83.936 204.788 82.528L207.476 81.568C207.828 83.584 208.596 84.992 209.78 85.792C210.964 86.592 212.324 86.992 213.86 86.992C214.756 86.992 215.604 86.848 216.404 86.56C217.236 86.272 217.908 85.824 218.42 85.216C218.932 84.576 219.188 83.76 219.188 82.768C219.188 81.744 218.836 80.864 218.132 80.128C217.428 79.392 216.148 78.784 214.292 78.304Z" fill="black"/>
<path d="M247.347 56.656V55.36H256.515V56.656L253.875 56.896C253.363 56.96 253.059 57.104 252.963 57.328C252.867 57.52 252.819 58.16 252.819 59.248V88H250.467L232.995 58.528V84.112C232.995 85.2 233.043 85.856 233.139 86.08C233.235 86.272 233.539 86.4 234.051 86.464L236.691 86.752V88H227.523V86.752L230.163 86.464C230.675 86.4 230.979 86.272 231.075 86.08C231.171 85.856 231.219 85.2 231.219 84.112V59.248C231.219 58.16 231.171 57.52 231.075 57.328C230.979 57.104 230.675 56.96 230.163 56.896L227.523 56.656V55.36H235.827L251.043 81.088V59.248C251.043 58.16 250.995 57.52 250.899 57.328C250.803 57.104 250.499 56.96 249.987 56.896L247.347 56.656Z" fill="black"/>
<path d="M265.046 58.864C264.278 58.864 263.638 58.624 263.126 58.144C262.646 57.632 262.406 56.976 262.406 56.176C262.406 55.408 262.646 54.784 263.126 54.304C263.638 53.824 264.278 53.584 265.046 53.584C265.814 53.584 266.438 53.824 266.918 54.304C267.43 54.784 267.686 55.408 267.686 56.176C267.686 56.976 267.43 57.632 266.918 58.144C266.438 58.624 265.814 58.864 265.046 58.864ZM259.43 65.536V64.24H267.062V84.112C267.062 85.232 267.11 85.888 267.206 86.08C267.302 86.272 267.606 86.4 268.118 86.464L270.758 86.752V88H259.43V86.752L262.07 86.464C262.582 86.4 262.886 86.272 262.982 86.08C263.078 85.888 263.126 85.232 263.126 84.112V68.128C263.126 67.008 263.078 66.352 262.982 66.16C262.886 65.968 262.582 65.84 262.07 65.776L259.43 65.536Z" fill="black"/>
<path d="M296.142 90.784C296.142 93.344 295.198 95.296 293.31 96.64C291.454 98.016 288.862 98.704 285.534 98.704C281.886 98.704 279.214 98.064 277.518 96.784C275.822 95.536 274.942 93.952 274.878 92.032L278.43 91.312C278.302 93.072 278.766 94.48 279.822 95.536C280.91 96.624 282.814 97.168 285.534 97.168C287.966 97.168 289.918 96.72 291.39 95.824C292.894 94.928 293.646 93.616 293.646 91.888C293.646 90.608 293.214 89.648 292.35 89.008C291.486 88.368 290.062 88.048 288.078 88.048H282.366C280.222 88.048 278.718 87.6 277.854 86.704C276.99 85.776 276.558 84.752 276.558 83.632C276.558 82.704 276.782 81.84 277.23 81.04C277.71 80.208 278.462 79.392 279.486 78.592C278.206 77.984 277.166 77.104 276.366 75.952C275.566 74.768 275.166 73.344 275.166 71.68C275.166 69.92 275.566 68.464 276.366 67.312C277.198 66.128 278.286 65.248 279.63 64.672C281.006 64.064 282.526 63.76 284.19 63.76H285.006C286.766 63.76 288.334 64.08 289.71 64.72L296.67 62.32L297.198 65.92H291.582C292.318 66.56 292.894 67.36 293.31 68.32C293.758 69.28 293.982 70.4 293.982 71.68C293.982 73.376 293.566 74.816 292.734 76C291.934 77.184 290.862 78.08 289.518 78.688C288.174 79.264 286.67 79.552 285.006 79.552H284.19C283.646 79.552 283.118 79.52 282.606 79.456C282.094 79.392 281.598 79.296 281.118 79.168C280.414 79.648 279.902 80.144 279.582 80.656C279.294 81.168 279.15 81.696 279.15 82.24C279.15 82.88 279.374 83.392 279.822 83.776C280.302 84.16 281.054 84.352 282.078 84.352H288.318C290.846 84.352 292.782 84.896 294.126 85.984C295.47 87.072 296.142 88.672 296.142 90.784ZM285.006 78.016C285.87 78.016 286.654 77.824 287.358 77.44C288.094 77.056 288.686 76.416 289.134 75.52C289.582 74.592 289.806 73.312 289.806 71.68C289.806 70.016 289.582 68.736 289.134 67.84C288.686 66.912 288.094 66.256 287.358 65.872C286.654 65.488 285.87 65.296 285.006 65.296H284.19C283.326 65.296 282.526 65.488 281.79 65.872C281.054 66.256 280.462 66.912 280.014 67.84C279.566 68.736 279.342 70.016 279.342 71.68C279.342 73.312 279.566 74.592 280.014 75.52C280.462 76.416 281.054 77.056 281.79 77.44C282.526 77.824 283.326 78.016 284.19 78.016H285.006Z" fill="black"/>
<path d="M326.192 86.752V88H314.864V86.752L317.504 86.464C318.016 86.4 318.32 86.272 318.416 86.08C318.512 85.888 318.56 85.232 318.56 84.112V72.16C318.56 69.792 318.176 68.128 317.408 67.168C316.64 66.176 315.552 65.68 314.144 65.68C313.056 65.68 311.872 66 310.592 66.64C309.312 67.28 308.112 68.544 306.992 70.432V84.112C306.992 85.232 307.04 85.888 307.136 86.08C307.232 86.272 307.536 86.4 308.048 86.464L310.688 86.752V88H299.36V86.752L302 86.464C302.512 86.4 302.816 86.272 302.912 86.08C303.008 85.888 303.056 85.232 303.056 84.112V56.368C303.056 55.248 303.008 54.592 302.912 54.4C302.816 54.208 302.512 54.08 302 54.016L299.36 53.776V52.48H306.992V67.888C308.112 66.448 309.392 65.408 310.832 64.768C312.272 64.096 313.696 63.76 315.104 63.76C317.472 63.76 319.296 64.496 320.576 65.968C321.856 67.408 322.496 69.456 322.496 72.112V84.112C322.496 85.232 322.544 85.888 322.64 86.08C322.736 86.272 323.04 86.4 323.552 86.464L326.192 86.752Z" fill="black"/>
<path d="M344.832 83.104C344.352 84.96 343.601 86.32 342.577 87.184C341.553 88.048 340.241 88.48 338.641 88.48C337.105 88.48 335.857 88.144 334.897 87.472C333.937 86.768 333.233 85.856 332.785 84.736C332.337 83.616 332.112 82.448 332.112 81.232V68.128C332.112 67.008 332.065 66.352 331.969 66.16C331.905 65.968 331.6 65.84 331.056 65.776L328.417 65.536V64.24H332.112V57.952L336.048 57.136V64.24H343.872V65.776H336.048V81.616C336.048 83.632 336.321 85.024 336.865 85.792C337.441 86.56 338.193 86.944 339.121 86.944C340.049 86.944 340.753 86.592 341.233 85.888C341.745 85.184 342.112 84.032 342.336 82.432L344.832 83.104Z" fill="black"/>
<path d="M357.683 78.304L354.755 77.584C350.755 76.56 348.755 74.256 348.755 70.672C348.755 69.488 349.027 68.368 349.571 67.312C350.115 66.256 350.979 65.408 352.163 64.768C353.379 64.096 354.931 63.76 356.819 63.76C358.931 63.76 360.627 64.112 361.907 64.816C363.187 65.52 364.083 66.432 364.595 67.552C365.107 68.672 365.267 69.888 365.075 71.2L361.331 71.872C361.715 69.792 361.491 68.176 360.659 67.024C359.859 65.872 358.531 65.296 356.675 65.296C355.235 65.296 354.083 65.664 353.219 66.4C352.355 67.104 351.923 68.144 351.923 69.52C351.923 70.544 352.243 71.456 352.883 72.256C353.523 73.024 354.595 73.6 356.099 73.984L359.123 74.704C361.235 75.216 362.867 76.032 364.019 77.152C365.203 78.272 365.795 79.744 365.795 81.568C365.795 83.616 365.043 85.28 363.539 86.56C362.067 87.84 359.955 88.48 357.203 88.48C355.891 88.48 354.611 88.288 353.363 87.904C352.147 87.488 351.075 86.848 350.147 85.984C349.251 85.088 348.595 83.936 348.179 82.528L350.867 81.568C351.219 83.584 351.987 84.992 353.171 85.792C354.355 86.592 355.715 86.992 357.251 86.992C358.147 86.992 358.995 86.848 359.795 86.56C360.627 86.272 361.299 85.824 361.811 85.216C362.323 84.576 362.579 83.76 362.579 82.768C362.579 81.744 362.227 80.864 361.523 80.128C360.819 79.392 359.539 78.784 357.683 78.304Z" fill="black"/>
</svg>
